<svg xmlns="http://www.w3.org/2000/svg" viewBox="0 0 24 24"><path fill="white" d="M12 8a4 4 0 1 0 0 8 4 4 0 0 0 0-8zm0 6a2 2 0 1 1 0-4 2 2 0 0 1 0 4zm9-2.5c0-.46-.04-.9-.1-1.34l1.86-1.45a.5.5 0 0 0 .12-.64l-1.76-3.05a.5.5 0 0 0-.6-.22l-2.2.88a7.4 7.4 0 0 0-2.32-1.34l-.33-2.34A.5.5 0 0 0 13.84 1h-3.68a.5.5 0 0 0-.5.43l-.33 2.34c-.84.31-1.62.76-2.32 1.34l-2.2-.88a.5.5 0 0 0-.6.22L2.45 7.5a.5.5 0 0 0 .12.64l1.86 1.45c-.06.44-.1.88-.1 1.34s.04.9.1 1.34l-1.86 1.45a.5.5 0 0 0-.12.64l1.76 3.05c.13.23.4.32.6.22l2.2-.88c.7.58 1.48 1.03 2.32 1.34l.33 2.34c.04.25.25.43.5.43h3.68c.25 0 .46-.18.5-.43l.33-2.34a7.4 7.4 0 0 0 2.32-1.34l2.2.88c.2.1.47.01.6-.22l1.76-3.05a.5.5 0 0 0-.12-.64l-1.86-1.45c.06-.44.1-.88.1-1.34z"/></svg>
