<svg xmlns="http://www.w3.org/2000/svg" viewBox="0 0 24 24"><path fill="white" d="M19.14 12.94c.04-.3.06-.61.06-.94 0-.32-.02-.64-.07-.94l2.03-1.58a.49.49 0 0 0 .12-.61l-1.92-3.32a.49.49 0 0 0-.59-.22l-2.39.96a7.05 7.05 0 0 0-1.62-.94l-.36-2.54a.5.5 0 0 0-.5-.42h-3.84a.5.5 0 0 0-.5.42l-.36 2.54a7.06 7.06 0 0 0-1.62.94l-2.39-.96a.49.49 0 0 0-.59.22L2.7 8.87a.49.49 0 0 0 .12.61l2.03 1.58c-.05.3-.07.62-.07.94 0 .32.02.64.07.94l-2.03 1.58a.49.49 0 0 0-.12.61l1.92 3.32c.13.22.39.31.6.22l2.39-.96c.5.38 1.04.7 1.62.94l.36 2.54c.05.24.25.42.5.42h3.84c.25 0 .46-.18.5-.42l.36-2.54c.58-.24 1.12-.56 1.62-.94l2.39.96c.21.09.47 0 .59-.22l1.92-3.32a.5.5 0 0 0-.12-.61l-2.01-1.58zM12 15.6A3.6 3.6 0 0 1 8.4 12 3.6 3.6 0 0 1 12 8.4a3.6 3.6 0 0 1 3.6 3.6 3.6 3.6 0 0 1-3.6 3.6z"/></svg>
